<?xml version="1.0" encoding="UTF-8"?> <svg xmlns="http://www.w3.org/2000/svg" width="160" height="35" viewBox="0 0 160 35" fill="none"> <path d="M10.0977 0.156067C14.9038 6.67123 14.5769 15.8051 10.0977 21.8668C21.8005 20.3794 21.7717 1.64344 10.0977 0.156067Z" fill="white"></path> <path d="M5.28191 0.0680847H0V34.7555H5.28191V0.0680847Z" fill="white"></path> <path d="M96.0356 0.0673218H90.7537V34.7547H96.0356V0.0673218Z" fill="white"></path> <path d="M121.176 0.0673218H115.894V34.7547H121.176V0.0673218Z" fill="white"></path> <path d="M151.412 0.0673218H146.13V34.7547H151.412V0.0673218Z" fill="white"></path> <path d="M128.683 19.4334V10.8749C128.073 13.0303 125.848 14.8396 124.175 15.1566C125.225 15.4173 126.191 15.9476 126.981 16.6966C127.77 17.4455 128.357 18.388 128.683 19.4334Z" fill="white"></path> <path d="M102.543 14.3951C104.198 14.2793 105.749 13.532 106.883 12.3034C108.017 11.0748 108.651 9.45606 108.656 7.77269V6.69983C108.657 5.01124 108.026 3.3853 106.892 2.14995C105.757 0.914592 104.203 0.161741 102.543 0.0432434C103.521 1.80746 104.032 3.79811 104.028 5.82204V8.57733C104.041 10.6147 103.529 12.6201 102.543 14.3951Z" fill="white"></path> <path d="M102.255 17.1657C103.421 19.3063 104.031 21.7128 104.028 24.1588V27.8211C104.031 30.2671 103.421 32.6737 102.255 34.8142C104.229 34.5822 106.051 33.6217 107.373 32.1156C108.695 30.6095 109.426 28.6628 109.425 26.6459V25.3292C109.424 23.3131 108.693 21.3676 107.371 19.8625C106.049 18.3575 104.228 17.3977 102.255 17.1657Z" fill="white"></path> <path d="M49.0896 0.458405C42.7263 0.843658 39.6841 10.2117 39.6841 17.4095C39.6841 24.6074 42.8129 33.6292 49.0896 34.3607C46.3069 32.449 45.5235 24.6074 45.5235 17.4095C45.5235 10.2117 45.9464 2.92598 49.0896 0.458405Z" fill="white"></path> <path d="M60.4079 7.28539L60.2829 0.0192261H54.3762C57.3945 0.594667 59.8312 3.6328 60.4079 7.28539Z" fill="white"></path> <path d="M54.3762 34.6923H60.826L60.9606 26.758C60.331 30.7227 57.6684 34.0437 54.3762 34.6923Z" fill="white"></path> <path d="M133.302 7.28539L133.177 0.0192261H127.251C130.269 0.594667 132.706 3.6328 133.302 7.28539Z" fill="white"></path> <path d="M137.555 7.28502C138.132 3.65194 140.569 0.613808 143.587 0.0188599H137.68L137.555 7.28502Z" fill="white"></path> <path d="M159.861 0H153.968C156.986 0.594948 159.423 3.63308 160 7.26616L159.861 0Z" fill="white"></path> <path d="M127.251 34.6923H133.701L133.836 26.758C133.206 30.7227 130.543 34.0437 127.251 34.6923Z" fill="white"></path> <path d="M73.048 0.458405C66.6848 0.843658 63.6377 10.2117 63.6377 17.4095C63.6377 24.6074 66.7713 33.6292 73.048 34.3607C70.2653 32.449 69.4819 24.6074 69.4819 17.4095C69.4819 10.2117 69.9049 2.92598 73.048 0.458405Z" fill="white"></path> <path d="M84.3664 7.28539L84.2414 0.0192261H78.3347C81.3481 0.594667 83.7993 3.6328 84.3664 7.28539Z" fill="white"></path> <path d="M78.3347 34.6923H84.7605L84.8998 26.758C84.2799 30.7227 81.6269 34.0437 78.3347 34.6923Z" fill="white"></path> <path d="M38.0835 34.8825L29.1201 0.190216H27.6783L25.7174 7.50516L25.7991 7.83188L28.8894 19.7894C29.1442 20.7208 28.5098 23.5054 25.8039 23.5054C22.877 23.5054 22.4396 20.3355 22.7328 19.4968L20.7383 27.5188C21.1734 26.5581 21.8787 25.7493 22.7654 25.194C23.6521 24.6387 24.6808 24.3617 25.7222 24.3978C29.149 24.3978 30.8119 27.1579 31.0089 27.9918L32.7872 34.863L38.0835 34.8825Z" fill="white"></path> <path d="M20.1088 30.1278C20.1088 30.0595 20.1088 29.9913 20.1088 29.923C19.3354 31.9237 17.9981 33.6487 16.2639 34.8825H22.6128C21.8424 34.3599 21.2109 33.6526 20.7742 32.8232C20.3374 31.9939 20.1089 31.0681 20.1088 30.1278Z" fill="white"></path> </svg> 